<?xml version="1.0" encoding="UTF-8" standalone="no"?>
<!-- Generator: Adobe Illustrator 16.0.4, SVG Export Plug-In . SVG Version: 6.00 Build 0)  -->

<svg
   xmlns:dc="http://purl.org/dc/elements/1.1/"
   xmlns:cc="http://creativecommons.org/ns#"
   xmlns:rdf="http://www.w3.org/1999/02/22-rdf-syntax-ns#"
   xmlns:svg="http://www.w3.org/2000/svg"
   xmlns="http://www.w3.org/2000/svg"
   xmlns:sodipodi="http://sodipodi.sourceforge.net/DTD/sodipodi-0.dtd"
   xmlns:inkscape="http://www.inkscape.org/namespaces/inkscape"
   version="1.1"
   id="Ebene_1"
   x="0px"
   y="0px"
   width="139.85019"
   height="21.720415"
   viewBox="0 0 140.85 22.27999998"
   enable-background="new 0 0 139.85 34.971"
   xml:space="preserve"
   inkscape:version="0.48.5 r10040"
   sodipodi:docname="hostsharing-logo-negativ.svg"><metadata
     id="metadata83"><rdf:RDF><cc:Work
         rdf:about=""><dc:format>image/svg+xml</dc:format><dc:type
           rdf:resource="http://purl.org/dc/dcmitype/StillImage" /><dc:title></dc:title></cc:Work></rdf:RDF></metadata><defs
     id="defs81" /><sodipodi:namedview
     pagecolor="#ffffff"
     bordercolor="#666666"
     borderopacity="1"
     objecttolerance="10"
     gridtolerance="10"
     guidetolerance="10"
     inkscape:pageopacity="0"
     inkscape:pageshadow="2"
     inkscape:window-width="1920"
     inkscape:window-height="985"
     id="namedview79"
     showgrid="false"
     inkscape:zoom="2.8888093"
     inkscape:cx="71.309849"
     inkscape:cy="-74.081635"
     inkscape:window-x="0"
     inkscape:window-y="29"
     inkscape:window-maximized="1"
     inkscape:current-layer="Ebene_1"
     fit-margin-top="0"
     fit-margin-left="0"
     fit-margin-right="0"
     fit-margin-bottom="0"
     units="mm"
     inkscape:showpageshadow="false"
     showborder="false" /><g
     id="g43"
     transform="translate(1.9218601e-4,-2.9305261e-4)"><path
       style="fill:#dd4901"
       inkscape:connector-curvature="0"
       id="path45"
       d="M 2.304,17.666 C -1.381,11.546 -0.446,6.802 3.686,2.799 6.279,0.287 8.395,0.739 8.399,1.318 8.462,6.631 7.171,11.57 5.924,16.633 5.205,19.911 4.481,20.851 2.304,17.666 z M 11.833,7.894 C 10.736,5.569 7.318,-0.395 11.96,0.021 c 8.521,-0.012 12.694,12.488 7.675,15.68 -0.929,0.737 -6.053,-4.188 -7.802,-7.807 z" /><path
       style="fill:#dd4901"
       inkscape:connector-curvature="0"
       id="path47"
       d="m 7.049,19.884 c -0.303,-0.733 -0.324,-1.642 0.104,-2.916 1.317,-3.923 6.227,-4.869 8.876,-1.711 4.303,4.867 -6.433,8.972 -8.98,4.627 z" /></g><g
     id="g49"
     transform="translate(1.9218601e-4,-2.9305261e-4)"><g
       id="g51"><path
         style="fill:#005094"
         inkscape:connector-curvature="0"
         id="path53"
         d="M 34.236,16.854 H 32.02 v -4.941 c 0,-0.61 -0.091,-1.068 -0.272,-1.373 -0.182,-0.307 -0.461,-0.458 -0.839,-0.458 -0.286,0 -0.525,0.061 -0.719,0.182 -0.194,0.121 -0.35,0.3 -0.465,0.537 -0.116,0.237 -0.199,0.529 -0.247,0.878 -0.048,0.349 -0.072,0.747 -0.072,1.196 v 3.979 H 27.189 V 5.077 h 2.217 v 2.398 c 0,0.212 -0.005,0.436 -0.015,0.67 -0.011,0.234 -0.022,0.45 -0.037,0.646 -0.02,0.231 -0.036,0.459 -0.051,0.682 h 0.115 c 0.237,-0.438 0.541,-0.756 0.909,-0.95 0.368,-0.193 0.785,-0.291 1.25,-0.291 0.402,0 0.768,0.061 1.093,0.179 0.327,0.117 0.607,0.304 0.839,0.556 0.233,0.253 0.412,0.574 0.538,0.966 0.126,0.392 0.189,0.858 0.189,1.403 l 0,5.518 0,0 z" /><path
         style="fill:#005094"
         inkscape:connector-curvature="0"
         id="path55"
         d="m 44.029,12.607 c 0,0.707 -0.086,1.332 -0.258,1.877 -0.172,0.545 -0.419,1.004 -0.741,1.378 -0.322,0.373 -0.715,0.657 -1.177,0.853 -0.463,0.193 -0.982,0.291 -1.56,0.291 -0.538,0 -1.031,-0.098 -1.482,-0.291 -0.45,-0.194 -0.839,-0.479 -1.166,-0.853 -0.327,-0.374 -0.583,-0.833 -0.768,-1.378 -0.185,-0.545 -0.275,-1.17 -0.275,-1.877 0,-0.7 0.086,-1.323 0.258,-1.869 0.172,-0.545 0.419,-1.003 0.741,-1.373 0.321,-0.37 0.713,-0.651 1.174,-0.845 0.46,-0.19 0.98,-0.287 1.562,-0.287 0.538,0 1.032,0.097 1.482,0.287 0.451,0.192 0.839,0.475 1.167,0.845 0.327,0.37 0.583,0.828 0.767,1.373 0.184,0.545 0.276,1.168 0.276,1.869 z m -5.159,0 c 0,0.844 0.114,1.479 0.341,1.903 0.229,0.427 0.599,0.64 1.112,0.64 0.509,0 0.877,-0.214 1.104,-0.643 0.229,-0.43 0.343,-1.062 0.343,-1.9 0,-0.843 -0.114,-1.472 -0.343,-1.888 -0.228,-0.417 -0.601,-0.625 -1.118,-0.625 -0.509,0 -0.875,0.208 -1.102,0.625 -0.225,0.417 -0.337,1.046 -0.337,1.888 z" /><path
         style="fill:#005094"
         inkscape:connector-curvature="0"
         id="path57"
         d="m 51.861,14.341 c 0,0.444 -0.078,0.833 -0.232,1.165 -0.154,0.334 -0.375,0.611 -0.662,0.833 -0.285,0.222 -0.632,0.389 -1.038,0.499 -0.407,0.111 -0.862,0.167 -1.366,0.167 -0.268,0 -0.515,-0.009 -0.741,-0.026 -0.227,-0.017 -0.443,-0.047 -0.646,-0.087 -0.203,-0.041 -0.399,-0.091 -0.589,-0.15 -0.188,-0.061 -0.38,-0.138 -0.573,-0.229 v -1.907 c 0.203,0.106 0.418,0.202 0.643,0.288 0.226,0.086 0.45,0.16 0.672,0.224 0.223,0.062 0.44,0.111 0.65,0.146 0.211,0.036 0.405,0.054 0.585,0.054 0.199,0 0.368,-0.02 0.509,-0.057 0.141,-0.038 0.255,-0.091 0.345,-0.159 0.089,-0.067 0.155,-0.147 0.196,-0.242 0.041,-0.094 0.062,-0.192 0.062,-0.299 0,-0.105 -0.016,-0.201 -0.047,-0.284 -0.031,-0.083 -0.103,-0.171 -0.214,-0.265 -0.112,-0.094 -0.274,-0.199 -0.491,-0.318 -0.216,-0.117 -0.505,-0.264 -0.868,-0.435 -0.354,-0.167 -0.66,-0.332 -0.92,-0.496 -0.259,-0.164 -0.473,-0.347 -0.64,-0.549 -0.167,-0.201 -0.292,-0.433 -0.374,-0.692 -0.083,-0.26 -0.124,-0.567 -0.124,-0.927 0,-0.394 0.072,-0.738 0.218,-1.033 0.146,-0.295 0.352,-0.541 0.618,-0.737 0.268,-0.196 0.587,-0.345 0.963,-0.442 0.376,-0.097 0.793,-0.147 1.253,-0.147 0.484,0 0.945,0.059 1.382,0.175 0.436,0.115 0.884,0.29 1.344,0.521 l -0.668,1.635 C 50.74,10.385 50.389,10.236 50.053,10.121 49.719,10.006 49.385,9.946 49.05,9.946 c -0.3,0 -0.517,0.057 -0.649,0.167 -0.132,0.11 -0.2,0.263 -0.2,0.454 0,0.102 0.017,0.19 0.051,0.27 0.034,0.078 0.103,0.159 0.204,0.242 0.103,0.083 0.245,0.174 0.429,0.271 0.185,0.099 0.425,0.218 0.72,0.359 0.344,0.156 0.653,0.312 0.93,0.466 0.276,0.153 0.514,0.329 0.712,0.525 0.199,0.196 0.352,0.427 0.458,0.688 0.103,0.261 0.156,0.58 0.156,0.953 z" /><path
         style="fill:#005094"
         inkscape:connector-curvature="0"
         id="path59"
         d="m 57.41,15.166 c 0.218,0 0.425,-0.025 0.622,-0.076 0.196,-0.05 0.396,-0.113 0.599,-0.189 v 1.72 c -0.208,0.109 -0.466,0.203 -0.773,0.275 -0.309,0.072 -0.644,0.109 -1.006,0.109 -0.354,0 -0.684,-0.043 -0.988,-0.129 -0.304,-0.086 -0.569,-0.235 -0.792,-0.45 -0.223,-0.214 -0.398,-0.502 -0.527,-0.862 -0.128,-0.36 -0.192,-0.812 -0.192,-1.357 v -4.08 H 53.29 V 9.148 l 1.222,-0.771 0.64,-1.786 h 1.417 v 1.802 h 1.977 v 1.732 h -1.977 v 4.08 c 0,0.327 0.077,0.568 0.231,0.727 0.155,0.156 0.358,0.234 0.61,0.234 z" /><path
         style="fill:#005094"
         inkscape:connector-curvature="0"
         id="path61"
         d="m 66.193,14.341 c 0,0.444 -0.078,0.833 -0.232,1.165 -0.154,0.334 -0.375,0.611 -0.662,0.833 -0.285,0.222 -0.632,0.389 -1.039,0.499 -0.406,0.111 -0.861,0.167 -1.365,0.167 -0.268,0 -0.515,-0.009 -0.741,-0.026 -0.228,-0.017 -0.443,-0.047 -0.646,-0.087 -0.203,-0.041 -0.399,-0.091 -0.589,-0.15 -0.188,-0.061 -0.38,-0.138 -0.574,-0.229 v -1.907 c 0.204,0.106 0.419,0.202 0.644,0.288 0.226,0.086 0.45,0.16 0.672,0.224 0.223,0.062 0.44,0.111 0.65,0.146 0.211,0.036 0.405,0.054 0.585,0.054 0.198,0 0.368,-0.02 0.509,-0.057 0.141,-0.038 0.255,-0.091 0.345,-0.159 0.089,-0.067 0.155,-0.147 0.196,-0.242 0.041,-0.094 0.062,-0.192 0.062,-0.299 0,-0.105 -0.016,-0.201 -0.047,-0.284 -0.032,-0.083 -0.103,-0.171 -0.214,-0.265 -0.112,-0.094 -0.274,-0.199 -0.491,-0.318 -0.216,-0.117 -0.505,-0.264 -0.869,-0.435 -0.354,-0.167 -0.659,-0.332 -0.919,-0.496 -0.259,-0.164 -0.473,-0.347 -0.64,-0.549 -0.167,-0.201 -0.292,-0.433 -0.374,-0.692 -0.083,-0.26 -0.124,-0.567 -0.124,-0.927 0,-0.394 0.072,-0.738 0.218,-1.033 0.146,-0.295 0.352,-0.541 0.618,-0.737 0.268,-0.196 0.587,-0.345 0.963,-0.442 0.376,-0.097 0.793,-0.147 1.253,-0.147 0.484,0 0.945,0.059 1.382,0.175 0.436,0.115 0.884,0.29 1.344,0.521 l -0.668,1.635 c -0.368,-0.182 -0.72,-0.331 -1.055,-0.446 -0.334,-0.115 -0.668,-0.175 -1.003,-0.175 -0.3,0 -0.517,0.057 -0.649,0.167 -0.132,0.11 -0.2,0.263 -0.2,0.454 0,0.102 0.017,0.19 0.051,0.27 0.034,0.078 0.103,0.159 0.204,0.242 0.103,0.083 0.245,0.174 0.429,0.271 0.185,0.099 0.425,0.218 0.72,0.359 0.344,0.156 0.653,0.312 0.93,0.466 0.276,0.153 0.514,0.329 0.712,0.525 0.199,0.196 0.351,0.427 0.458,0.688 0.103,0.261 0.156,0.58 0.156,0.953 z" /><path
         style="fill:#005094"
         inkscape:connector-curvature="0"
         id="path63"
         d="m 75.494,16.854 h -2.217 v -4.941 c 0,-0.61 -0.091,-1.068 -0.272,-1.373 -0.181,-0.307 -0.46,-0.458 -0.839,-0.458 -0.286,0 -0.524,0.061 -0.719,0.182 -0.195,0.121 -0.35,0.3 -0.465,0.537 -0.117,0.237 -0.199,0.529 -0.248,0.878 -0.049,0.349 -0.072,0.747 -0.072,1.196 v 3.979 H 68.445 V 5.077 h 2.217 v 2.398 c 0,0.212 -0.006,0.436 -0.016,0.67 -0.01,0.234 -0.021,0.45 -0.035,0.646 C 70.59,9.022 70.574,9.25 70.56,9.473 h 0.114 c 0.238,-0.438 0.541,-0.756 0.908,-0.95 0.37,-0.193 0.786,-0.291 1.25,-0.291 0.403,0 0.769,0.061 1.096,0.179 0.326,0.117 0.606,0.304 0.839,0.556 0.231,0.253 0.412,0.574 0.537,0.966 0.128,0.392 0.189,0.858 0.189,1.403 v 5.518 z" /><path
         style="fill:#005094"
         inkscape:connector-curvature="0"
         id="path65"
         d="m 82.998,16.854 -0.43,-1.149 h -0.064 c -0.159,0.227 -0.32,0.423 -0.479,0.587 -0.161,0.164 -0.334,0.299 -0.524,0.403 -0.188,0.106 -0.398,0.186 -0.634,0.235 -0.236,0.05 -0.508,0.075 -0.819,0.075 -0.33,0 -0.634,-0.055 -0.916,-0.163 -0.278,-0.108 -0.521,-0.272 -0.729,-0.491 -0.204,-0.22 -0.364,-0.497 -0.482,-0.833 -0.117,-0.335 -0.173,-0.731 -0.173,-1.19 0,-0.898 0.275,-1.562 0.827,-1.987 0.553,-0.426 1.379,-0.662 2.479,-0.708 l 1.295,-0.045 V 10.95 c 0,-0.35 -0.1,-0.605 -0.291,-0.772 -0.194,-0.166 -0.467,-0.249 -0.815,-0.249 -0.347,0 -0.688,0.053 -1.019,0.159 -0.332,0.104 -0.666,0.247 -1,0.424 L 78.503,8.983 c 0.407,-0.236 0.858,-0.424 1.353,-0.561 0.494,-0.136 1.012,-0.204 1.556,-0.204 1.011,0 1.789,0.247 2.327,0.742 0.541,0.494 0.812,1.246 0.812,2.255 v 5.639 h -1.553 z m -0.655,-3.92 -0.734,0.029 c -0.294,0.011 -0.544,0.051 -0.747,0.121 -0.204,0.071 -0.367,0.166 -0.491,0.284 -0.122,0.118 -0.213,0.26 -0.27,0.424 -0.056,0.164 -0.084,0.347 -0.084,0.549 0,0.354 0.083,0.604 0.249,0.753 0.163,0.149 0.38,0.224 0.646,0.224 0.203,0 0.393,-0.036 0.566,-0.109 0.174,-0.072 0.325,-0.183 0.454,-0.325 0.128,-0.144 0.229,-0.32 0.301,-0.529 0.073,-0.21 0.109,-0.45 0.109,-0.724 l 0.001,-0.697 0,0 z" /><path
         style="fill:#005094"
         inkscape:connector-curvature="0"
         id="path67"
         d="m 91.57,8.233 c 0.059,0 0.121,10e-4 0.191,0.004 0.069,0.003 0.138,0.008 0.203,0.016 0.065,0.008 0.125,0.016 0.184,0.021 0.055,0.009 0.097,0.018 0.126,0.026 v 2.165 c -0.038,-0.01 -0.092,-0.021 -0.159,-0.03 -0.069,-0.01 -0.141,-0.019 -0.216,-0.025 -0.074,-0.009 -0.147,-0.014 -0.221,-0.017 -0.074,-0.002 -0.135,-0.003 -0.182,-0.003 -0.287,0 -0.549,0.037 -0.79,0.113 -0.239,0.075 -0.444,0.198 -0.617,0.367 -0.171,0.169 -0.306,0.391 -0.398,0.666 -0.094,0.273 -0.144,0.61 -0.144,1.01 v 4.307 h -2.216 v -8.46 h 1.68 l 0.324,1.271 h 0.109 C 89.562,9.445 89.687,9.25 89.823,9.073 89.959,8.895 90.11,8.747 90.276,8.623 90.444,8.499 90.633,8.402 90.845,8.335 91.056,8.268 91.298,8.233 91.57,8.233 z" /><path
         style="fill:#005094"
         inkscape:connector-curvature="0"
         id="path69"
         d="m 94.204,6.205 c 0,-0.218 0.032,-0.397 0.095,-0.541 0.062,-0.146 0.147,-0.261 0.259,-0.35 0.108,-0.088 0.237,-0.149 0.385,-0.186 0.147,-0.035 0.304,-0.053 0.468,-0.053 0.166,0 0.32,0.018 0.465,0.053 0.146,0.035 0.274,0.098 0.384,0.186 0.108,0.089 0.195,0.204 0.263,0.35 0.062,0.144 0.097,0.323 0.097,0.541 0,0.212 -0.033,0.391 -0.097,0.537 C 96.457,6.888 96.37,7.006 96.26,7.094 96.152,7.183 96.024,7.245 95.876,7.283 95.73,7.321 95.576,7.34 95.41,7.34 95.246,7.34 95.091,7.32 94.942,7.283 94.796,7.245 94.667,7.181 94.557,7.094 94.447,7.006 94.362,6.889 94.298,6.742 94.236,6.595 94.204,6.417 94.204,6.205 z m 2.311,10.649 H 94.297 V 8.393 h 2.218 v 8.461 z" /><path
         style="fill:#005094"
         inkscape:connector-curvature="0"
         id="path71"
         d="m 106.395,16.854 h -2.217 v -4.941 c 0,-0.61 -0.089,-1.068 -0.267,-1.373 -0.177,-0.307 -0.459,-0.458 -0.845,-0.458 -0.291,0 -0.533,0.061 -0.729,0.182 -0.194,0.121 -0.35,0.3 -0.462,0.537 -0.112,0.237 -0.195,0.529 -0.242,0.878 -0.05,0.349 -0.074,0.747 -0.074,1.196 v 3.979 H 99.345 V 8.393 h 1.689 l 0.299,1.082 h 0.124 c 0.117,-0.217 0.258,-0.404 0.427,-0.561 0.167,-0.156 0.35,-0.285 0.549,-0.387 0.197,-0.101 0.407,-0.175 0.633,-0.224 0.223,-0.048 0.448,-0.071 0.681,-0.071 0.399,0 0.76,0.061 1.084,0.179 0.324,0.117 0.604,0.304 0.837,0.556 0.232,0.253 0.409,0.574 0.537,0.966 0.125,0.392 0.188,0.858 0.188,1.403 l 0.002,5.518 0,0 z" /><path
         style="fill:#005094"
         inkscape:connector-curvature="0"
         id="path73"
         d="m 115.906,8.407 v 1.257 l -1.184,0.386 c 0.096,0.171 0.164,0.35 0.201,0.533 0.04,0.185 0.06,0.382 0.06,0.595 0,0.429 -0.066,0.82 -0.196,1.177 -0.131,0.355 -0.325,0.659 -0.58,0.911 -0.258,0.253 -0.58,0.448 -0.967,0.587 -0.39,0.14 -0.838,0.208 -1.353,0.208 -0.11,0 -0.231,-0.006 -0.363,-0.019 -0.13,-0.014 -0.229,-0.026 -0.291,-0.042 -0.097,0.086 -0.173,0.176 -0.229,0.269 -0.057,0.094 -0.085,0.206 -0.085,0.337 0,0.106 0.032,0.19 0.096,0.254 0.062,0.064 0.146,0.113 0.247,0.151 0.103,0.038 0.221,0.063 0.355,0.075 0.135,0.013 0.275,0.02 0.422,0.02 h 1.264 c 0.393,0 0.744,0.047 1.055,0.141 0.309,0.094 0.573,0.235 0.787,0.428 0.217,0.191 0.383,0.436 0.499,0.729 0.117,0.296 0.176,0.647 0.176,1.057 0,0.479 -0.095,0.912 -0.278,1.298 -0.183,0.386 -0.459,0.714 -0.822,0.984 -0.365,0.27 -0.82,0.477 -1.364,0.619 -0.543,0.145 -1.169,0.217 -1.88,0.217 -0.555,0 -1.035,-0.056 -1.447,-0.163 -0.412,-0.108 -0.757,-0.266 -1.032,-0.47 -0.275,-0.203 -0.482,-0.449 -0.621,-0.737 -0.138,-0.287 -0.207,-0.613 -0.207,-0.978 0,-0.308 0.053,-0.573 0.153,-0.802 0.101,-0.228 0.236,-0.421 0.405,-0.583 0.17,-0.161 0.363,-0.292 0.578,-0.394 0.216,-0.102 0.438,-0.18 0.665,-0.234 -0.104,-0.046 -0.202,-0.108 -0.303,-0.189 -0.099,-0.079 -0.188,-0.174 -0.269,-0.279 -0.08,-0.105 -0.146,-0.224 -0.195,-0.353 -0.049,-0.129 -0.076,-0.264 -0.076,-0.403 0,-0.162 0.022,-0.31 0.068,-0.439 0.046,-0.129 0.112,-0.254 0.199,-0.367 0.088,-0.112 0.195,-0.221 0.328,-0.32 0.131,-0.103 0.278,-0.204 0.442,-0.312 -0.426,-0.19 -0.764,-0.499 -1.014,-0.923 -0.25,-0.424 -0.375,-0.924 -0.375,-1.499 0,-0.454 0.067,-0.86 0.202,-1.219 0.137,-0.358 0.337,-0.662 0.596,-0.912 0.262,-0.249 0.588,-0.439 0.975,-0.571 0.388,-0.131 0.834,-0.196 1.339,-0.196 0.096,0 0.206,0.007 0.326,0.02 0.121,0.013 0.239,0.028 0.359,0.046 0.119,0.018 0.229,0.036 0.332,0.057 0.102,0.021 0.181,0.038 0.238,0.054 h 2.763 V 8.407 z m -5.813,9.642 c 0,0.127 0.025,0.249 0.076,0.367 0.051,0.119 0.135,0.224 0.25,0.313 0.117,0.091 0.271,0.163 0.457,0.216 0.189,0.054 0.422,0.079 0.698,0.079 0.757,0 1.324,-0.109 1.707,-0.333 0.384,-0.222 0.575,-0.52 0.575,-0.893 0,-0.318 -0.12,-0.53 -0.355,-0.636 -0.238,-0.106 -0.605,-0.159 -1.105,-0.159 h -1.022 c -0.132,0 -0.271,0.017 -0.423,0.049 -0.15,0.033 -0.288,0.09 -0.413,0.171 -0.127,0.08 -0.232,0.188 -0.316,0.321 -0.089,0.136 -0.129,0.304 -0.129,0.505 z m 0.798,-6.887 c 0,0.459 0.083,0.813 0.246,1.066 0.166,0.252 0.416,0.378 0.75,0.378 0.349,0 0.6,-0.126 0.757,-0.378 0.153,-0.253 0.231,-0.607 0.231,-1.066 0,-0.454 -0.077,-0.814 -0.23,-1.082 -0.151,-0.269 -0.404,-0.401 -0.758,-0.401 -0.663,0 -0.996,0.494 -0.996,1.483 z" /><path
         style="fill:#005094"
         inkscape:connector-curvature="0"
         id="path75"
         d="m 125.84,17.005 c -0.578,0 -1.114,-0.088 -1.604,-0.265 -0.488,-0.178 -0.911,-0.443 -1.264,-0.8 -0.354,-0.354 -0.63,-0.805 -0.827,-1.347 -0.195,-0.543 -0.292,-1.18 -0.292,-1.911 0,-0.742 0.09,-1.391 0.267,-1.945 0.18,-0.555 0.434,-1.018 0.754,-1.389 0.321,-0.371 0.709,-0.648 1.163,-0.836 0.453,-0.188 0.954,-0.28 1.508,-0.28 0.537,0 1.023,0.084 1.457,0.253 0.435,0.171 0.802,0.418 1.104,0.746 0.303,0.328 0.537,0.73 0.699,1.207 0.161,0.478 0.241,1.022 0.241,1.64 v 1.12 h -4.955 c 0.011,0.321 0.06,0.613 0.149,0.874 0.089,0.26 0.214,0.479 0.379,0.657 0.162,0.181 0.356,0.316 0.588,0.412 0.229,0.098 0.492,0.146 0.788,0.146 0.246,0 0.48,-0.015 0.701,-0.042 0.22,-0.027 0.434,-0.069 0.644,-0.125 0.209,-0.057 0.414,-0.125 0.617,-0.208 0.203,-0.083 0.412,-0.182 0.625,-0.291 v 1.786 c -0.193,0.104 -0.389,0.194 -0.584,0.269 -0.198,0.073 -0.403,0.135 -0.621,0.186 -0.22,0.051 -0.453,0.088 -0.706,0.109 -0.252,0.022 -0.53,0.034 -0.831,0.034 z m -0.283,-7.13 c -0.393,0 -0.718,0.145 -0.977,0.432 -0.261,0.288 -0.408,0.739 -0.448,1.355 h 2.827 c -0.004,-0.259 -0.036,-0.495 -0.095,-0.712 -0.059,-0.218 -0.144,-0.405 -0.262,-0.563 -0.114,-0.159 -0.262,-0.284 -0.436,-0.375 -0.171,-0.091 -0.375,-0.137 -0.609,-0.137 z" /><path
         style="fill:#005094"
         inkscape:connector-curvature="0"
         id="path77"
         d="m 135.633,10.64 h 4.217 v 5.737 c -0.279,0.096 -0.564,0.183 -0.852,0.261 -0.284,0.078 -0.582,0.145 -0.891,0.197 -0.307,0.053 -0.629,0.095 -0.967,0.124 -0.335,0.031 -0.692,0.046 -1.07,0.046 -0.794,0 -1.497,-0.122 -2.11,-0.367 -0.612,-0.244 -1.129,-0.606 -1.549,-1.09 -0.418,-0.481 -0.737,-1.077 -0.955,-1.786 -0.22,-0.709 -0.327,-1.527 -0.327,-2.456 0,-0.867 0.119,-1.652 0.364,-2.354 0.242,-0.701 0.6,-1.299 1.07,-1.79 0.473,-0.492 1.055,-0.87 1.743,-1.136 0.69,-0.266 1.482,-0.396 2.374,-0.396 0.565,0 1.12,0.062 1.662,0.188 0.544,0.127 1.039,0.291 1.491,0.492 l -0.749,1.877 c -0.329,-0.171 -0.7,-0.314 -1.113,-0.432 -0.415,-0.115 -0.851,-0.174 -1.307,-0.174 -0.493,0 -0.938,0.09 -1.334,0.269 -0.394,0.181 -0.731,0.434 -1.013,0.761 -0.282,0.328 -0.496,0.726 -0.646,1.188 -0.149,0.463 -0.228,0.981 -0.228,1.552 0,0.545 0.053,1.043 0.157,1.494 0.104,0.452 0.267,0.842 0.49,1.17 0.225,0.328 0.511,0.582 0.859,0.764 0.354,0.183 0.771,0.273 1.262,0.273 0.321,0 0.592,-0.016 0.812,-0.046 0.22,-0.03 0.427,-0.065 0.621,-0.106 v -2.308 h -2.016 V 10.64 h 0.005 z" /></g></g></svg>
